<?xml version="1.0" standalone="no"?>
<!DOCTYPE svg PUBLIC "-//W3C//DTD SVG 20010904//EN"
 "http://www.w3.org/TR/2001/REC-SVG-20010904/DTD/svg10.dtd">
<svg version="1.0" xmlns="http://www.w3.org/2000/svg"
 width="1800.000000pt" height="1800.000000pt" viewBox="0 0 1800.000000 1800.000000"
 preserveAspectRatio="xMidYMid meet">

<g transform="translate(0.000000,1800.000000) scale(0.100000,-0.100000)"
fill="#000000" stroke="none">
<path d="M8551 17440 c-539 -31 -1047 -106 -1556 -230 -1670 -408 -3195 -1346
-4319 -2655 -1032 -1201 -1702 -2665 -1926 -4205 -66 -461 -85 -726 -84 -1235
1 -514 21 -804 90 -1255 265 -1745 1086 -3362 2344 -4620 1258 -1258 2877
-2080 4620 -2344 458 -70 742 -90 1265 -90 444 0 599 8 965 50 1061 119 2141
467 3080 992 1154 645 2136 1548 2869 2642 683 1018 1133 2171 1315 3370 70
458 90 742 90 1265 0 524 -20 808 -90 1265 -265 1745 -1086 3362 -2344 4620
-1331 1331 -3075 2176 -4920 2384 -404 46 -1034 66 -1399 46z m679 -5176 c865
-95 1652 -574 2136 -1303 187 -280 300 -532 392 -871 71 -258 84 -323 142
-700 56 -372 98 -545 181 -753 211 -530 654 -984 1432 -1466 115 -72 136 -91
98 -91 -54 0 -997 414 -1791 787 -41 20 -160 75 -265 123 -241 111 -1000 469
-1250 590 -503 242 -707 343 -1455 717 -689 345 -1377 697 -1795 917 -60 32
-150 80 -200 106 -49 26 -247 132 -440 235 -192 103 -384 206 -425 228 -263
140 -637 343 -925 502 -245 135 -752 430 -775 451 -9 9 -11 17 -5 23 6 6 52
-8 120 -36 153 -62 523 -184 685 -226 321 -83 519 -110 795 -111 457 -1 774
94 1314 393 264 147 593 292 848 375 126 40 359 89 503 105 52 6 109 13 125
15 74 9 442 2 555 -10z m-2255 -2699 c158 -24 158 -24 151 -50 -28 -112 -37
-405 -16 -555 40 -297 163 -595 339 -825 258 -336 621 -564 1047 -655 142 -31
437 -39 592 -16 364 54 697 219 969 481 l87 84 51 -47 c163 -152 305 -330 353
-445 38 -91 37 -201 -2 -276 -43 -83 -127 -164 -266 -256 -346 -230 -751 -377
-1170 -424 -124 -14 -525 -6 -643 13 -615 98 -1109 355 -1532 797 -429 448
-690 1060 -712 1669 -6 182 3 249 49 340 50 97 137 155 275 180 66 12 306 4
428 -15z m527 -266 c3 -79 14 -180 23 -224 142 -693 754 -1172 1455 -1142 299
13 591 122 817 304 41 33 63 36 63 10 -1 -20 -158 -128 -275 -189 -414 -215
-904 -219 -1320 -11 -80 41 -214 131 -296 200 -245 206 -428 525 -483 840 -18
101 -32 323 -22 348 3 9 12 15 19 13 8 -3 14 -47 19 -149z"/>
<path d="M8740 11283 c-208 -20 -409 -68 -600 -143 -139 -54 -389 -196 -555
-314 -33 -23 -105 -72 -160 -109 -145 -96 -145 -96 -145 -121 0 -19 36 -66 52
-66 2 0 96 -50 208 -110 l204 -110 58 64 c199 221 493 387 809 458 90 20 131
23 309 23 178 0 219 -3 309 -23 302 -68 535 -196 757 -417 216 -215 350 -462
415 -767 29 -136 36 -372 15 -516 -9 -62 -19 -119 -22 -127 -7 -16 24 -33 283
-151 148 -67 188 -81 207 -74 24 9 40 47 31 72 -2 7 -9 126 -15 263 -15 354
-38 528 -96 727 -186 639 -643 1125 -1260 1341 -237 83 -564 124 -804 100z"/>
<path d="M8770 10819 c-355 -34 -737 -227 -951 -481 l-39 -46 62 -35 c79 -43
580 -308 833 -439 305 -159 853 -428 1210 -595 377 -176 457 -213 464 -213 26
0 50 278 39 449 -41 642 -525 1200 -1153 1331 -180 38 -297 45 -465 29z"/>
</g>
</svg>
